<?xml version="1.0" encoding="utf-8"?>
<!-- Generator: Adobe Illustrator 16.0.0, SVG Export Plug-In . SVG Version: 6.00 Build 0)  -->
<!DOCTYPE svg PUBLIC "-//W3C//DTD SVG 1.1//EN" "http://www.w3.org/Graphics/SVG/1.1/DTD/svg11.dtd">
<svg version="1.1" id="Layer_1" xmlns="http://www.w3.org/2000/svg" xmlns:xlink="http://www.w3.org/1999/xlink" x="0px" y="0px"
	 width="30.296px" height="13.684px" viewBox="14.836 6.7 30.296 13.684" enable-background="new 14.836 6.7 30.296 13.684"
	 xml:space="preserve">
<g>
	<path d="M44.959,13.753c-0.23-0.307-0.69-0.652-1.495-0.652c-1.15,0-2.262,0.652-3.258,1.15c-0.997,0.498-2.223,1.188-3.373,1.188
		c-1.227,0-1.725-1.073-2.108-2.07c-0.69-1.763-1.917-3.066-3.948-3.066c-1.457,0-2.645,0.805-3.68,1.801
		c-0.997,0.997-1.917,2.53-3.488,2.53c-0.383,0-0.766-0.077-1.073-0.23c-0.69-0.307-1.533-0.997-1.227-3.258
		c0.191-1.341,0.038-2.376-0.499-3.181C20.274,7.16,19.354,6.7,18.32,6.7c-1.074,0-2.146,0.499-2.684,1.457
		c-1.495,2.491-0.651,5.826,0.537,7.935c1.341,2.453,4.024,4.293,6.899,4.293c1.571,0,3.143-0.46,4.369-1.457
		c0.69-0.575,1.188-1.303,1.572-2.108c0.268-0.575,0.575-1.418,1.303-1.457c0.881-0.077,1.687,0.92,2.223,1.533
		c1.073,1.15,2.568,2.07,4.178,2.185c1.801,0.115,3.373-0.92,4.714-1.993c0.537-0.422,1.073-0.882,1.61-1.342
		c0.345-0.307,0.805-0.767,1.342-0.767c0,0,0,0,0.038,0c0.269,0,0.537-0.153,0.69-0.421C45.15,14.29,45.15,13.983,44.959,13.753z
		 M41.778,14.328c-0.115,0.499-0.192,1.073-0.115,1.457c-0.881,0.728-1.763,1.533-2.798,2.031c0.383-0.728,0.651-1.571,0.69-2.415
		C40.321,15.056,41.088,14.635,41.778,14.328z M32.348,11.453c0.498,0.23,0.805,0.537,1.073,0.92
		c-0.038,0.23-0.076,0.421-0.153,0.652c-0.269,1.073-0.69,1.84-1.303,2.338c-0.307-0.269-0.652-0.46-1.035-0.613
		c0-0.881-0.115-2.108-0.843-3.028c-0.115-0.154-0.268-0.307-0.422-0.422c0.345-0.115,0.69-0.191,1.074-0.191
		C31.275,11.109,31.773,11.185,32.348,11.453z M16.25,8.579c0.805-1.342,3.028-1.457,3.909-0.153
		c0.499,0.767,0.499,1.763,0.384,2.645c-0.154,1.15-0.077,2.338,0.536,3.182c-1.111,1.035-2.645,1.687-4.178,1.725
		c-0.039-0.077-0.077-0.115-0.115-0.191C15.675,13.715,15.023,10.687,16.25,8.579z M17.4,16.666
		c1.571-0.153,3.066-0.843,4.216-1.917c0,0,1.802,0.651,2.07,0.651c-0.077,0-0.882,1.304-0.997,1.457
		c-0.69,0.843-1.533,1.571-2.491,2.185C19.124,18.506,18.166,17.663,17.4,16.666z M22.153,19.58c-0.345-0.039-0.69-0.115-1.035-0.23
		c1.035-0.728,1.993-1.687,2.721-2.722c0.307-0.421,0.46-0.958,0.767-1.341c0.23-0.307,0.69-0.345,0.997-0.575
		c0.191-0.115,0.805-0.537,0.805-0.805c0.192,1.687-0.191,3.334-0.69,5.175c-0.077,0.307-1.073,0.345-1.341,0.383
		C23.647,19.618,22.881,19.656,22.153,19.58z M28.017,17.011c-0.307,0.651-0.805,1.188-1.38,1.61c0.46-1.802,0.805-3.603,0.46-5.405
		c0.575-0.613,1.15-1.15,1.84-1.533c0.23,0.115,0.421,0.307,0.613,0.537c0.537,0.69,0.651,1.687,0.651,2.415
		C29.013,14.673,28.477,15.976,28.017,17.011z M32.54,15.862c0.613-0.537,1.111-1.342,1.418-2.415c0.23,0.575,0.46,1.15,0.805,1.648
		c0.153,0.23,0.345,0.422,0.537,0.537c0,0,0,0.038-0.038,0.038c-0.039,0.115-0.077,0.23-0.153,0.345
		c-0.23,0.46-0.69,0.844-1.15,1.188l-0.038-0.038C33.383,16.82,32.962,16.321,32.54,15.862z M34.61,17.663
		c0.421-0.345,0.882-0.729,1.15-1.265c0.077-0.115,0.115-0.23,0.153-0.345c0.307,0.115,0.575,0.153,0.92,0.153
		c0.613,0,1.265-0.192,1.917-0.421c-0.153,0.92-0.537,1.801-1.111,2.491c-0.23,0.039-0.46,0.077-0.69,0.077
		C36.143,18.315,35.338,18.085,34.61,17.663z M44.307,14.213c-0.613,0-1.227,0.537-1.725,0.881
		c-0.077,0.039-0.115,0.077-0.191,0.154c0.038-0.345,0.115-0.843,0.229-1.188C42.812,13.638,44.192,13.753,44.307,14.213
		C44.345,14.213,44.307,14.213,44.307,14.213z"/>
	<circle cx="17.246" cy="10.073" r="0.307"/>
	<circle cx="19.278" cy="10.073" r="0.307"/>
	<path d="M17.131,11.339c-0.077,0.077-0.077,0.191,0,0.268c0.345,0.345,0.767,0.498,1.188,0.498c0.421,0,0.843-0.153,1.188-0.498
		c0.077-0.077,0.077-0.191,0-0.268c-0.077-0.077-0.191-0.077-0.269,0c-0.498,0.498-1.303,0.498-1.839,0
		C17.323,11.261,17.208,11.261,17.131,11.339z"/>
</g>
</svg>
